<?xml version="1.0" encoding="UTF-8"?>
<svg id="Layer_1" xmlns="http://www.w3.org/2000/svg" version="1.1" viewBox="0 0 347.6 103.7">
  <!-- Generator: Adobe Illustrator 29.1.0, SVG Export Plug-In . SVG Version: 2.1.0 Build 142)  -->
  <path d="M36.5,101.9c-15.5,0-23.9-7.7-23.9-21.9v-36.2H0v-13.5h12.6V5.8h16v24.5h18.5v13.5h-18.5v35.2c0,6.1,3.1,9.5,9.1,9.5h8.1v13.5h-9.2Z"/>
  <path d="M58.9,101.9V.5h16v37.5c4.9-5.9,13.1-9.9,22.4-9.9,15.3,0,25.3,10.3,25.3,26.4v47.5h-16v-46.6c0-8-5.3-13.3-13.8-13.3s-17.8,7.2-18,16.5v43.4h-16Z"/>
  <path d="M135.6,10.3c0-5.8,4.5-10.3,10.3-10.3s10.3,4.5,10.3,10.3-4.3,10.4-10.3,10.4-10.3-4.6-10.3-10.4ZM137.9,101.9V30.3h16v71.7h-16Z"/>
  <path d="M170.1,101.9V30.3h12.8l1.4,10.5c4.5-7.4,13.5-12.7,24.2-12.7,15.3,0,25.3,10.3,25.3,26.4v47.5h-16v-46.6c0-8-5.3-13.3-14.2-13.3s-17.4,7.2-17.6,16.5v43.4h-16Z"/>
  <path d="M249.3,101.9V.5h16v60.8l30.6-31.1h19.5l-26,25.8,29.5,45.8h-18.5l-22-34.7-13,13v21.8h-16Z"/>
  <path d="M326.9,93.3c0-5.8,4.5-10.3,10.3-10.3s10.4,4.5,10.4,10.3-4.5,10.4-10.4,10.4-10.3-4.5-10.3-10.4Z"/>
</svg>